<?xml version="1.0" standalone="no"?><!DOCTYPE svg PUBLIC "-//W3C//DTD SVG 1.1//EN" "http://www.w3.org/Graphics/SVG/1.1/DTD/svg11.dtd"><svg t="1587455412658" class="icon" viewBox="0 0 1024 1024" version="1.1" xmlns="http://www.w3.org/2000/svg" p-id="4506" xmlns:xlink="http://www.w3.org/1999/xlink" width="200" height="200"><defs><style type="text/css"></style></defs><path d="M516.03904 764.352c-174.592 0-346.069333-81.194667-509.632-241.322667a21.333333 21.333333 0 0 1-0.938667-29.504c8.597333-9.557333 213.738667-233.898667 510.549334-233.898666 174.592 0 343.338667 78.357333 501.568 232.896a21.333333 21.333333 0 0 1 1.472 28.906666c-8.256 9.941333-205.696 242.922667-503.018667 242.922667zM51.65504 507.349333C202.225707 649.6 358.364373 721.685333 516.060373 721.685333c235.221333 0 408.746667-162.538667 456.853334-212.885333-145.578667-137.045333-299.178667-206.485333-456.874667-206.485333-235.285333 0-413.845333 155.797333-464.384 205.034666z" p-id="4507" fill="#999999"></path><path d="M512.028373 692.416c-99.477333 0-180.394667-80.896-180.394666-180.309333 0-99.52 80.917333-180.48 180.394666-180.48 99.434667 0 180.330667 80.96 180.330667 180.48 0 99.413333-80.896 180.309333-180.330667 180.309333z m0-318.122667c-75.946667 0-137.728 61.824-137.728 137.813334 0 75.904 61.781333 137.642667 137.728 137.642666a137.813333 137.813333 0 0 0 137.664-137.642666c0-75.989333-61.738667-137.813333-137.664-137.813334z" p-id="4508" fill="#999999"></path></svg>